<svg viewBox="0 0 375 667" fill="none" xmlns="http://www.w3.org/2000/svg">
<g opacity="0.07">
<g style="mix-blend-mode:difference">
<path fill-rule="evenodd" clip-rule="evenodd" d="M371.287 -4C368.883 -4 366.504 -3.88908 364.152 -3.68835C367.244 -3.42425 370.283 -2.98583 373.269 -2.38895C417.433 -1.32196 452.944 35.2462 452.944 80.25C452.944 125.254 417.433 161.822 373.269 162.889C370.283 163.486 367.244 163.924 364.152 164.188C366.504 164.389 368.883 164.5 371.287 164.5C417.258 164.5 454.53 126.78 454.53 80.25C454.53 33.7197 417.258 -4 371.287 -4Z" fill="#435A2C"/>
<path fill-rule="evenodd" clip-rule="evenodd" d="M356.09 -4C353.644 -4 351.226 -3.88908 348.834 -3.68835C351.978 -3.42425 355.069 -2.98583 358.106 -2.38895C403.017 -1.32196 439.131 35.2462 439.131 80.25C439.131 125.254 403.017 161.822 358.106 162.889C355.069 163.486 351.978 163.924 348.834 164.188C351.226 164.389 353.644 164.5 356.09 164.5C402.84 164.5 440.743 126.78 440.743 80.25C440.743 33.7197 402.84 -4 356.09 -4Z" fill="#435A2C"/>
<path fill-rule="evenodd" clip-rule="evenodd" d="M343.715 -4C341.31 -4 338.932 -3.88908 336.58 -3.68835C339.672 -3.42425 342.711 -2.98583 345.697 -2.38895C389.86 -1.32196 425.372 35.2462 425.372 80.25C425.372 125.254 389.86 161.822 345.697 162.889C342.711 163.486 339.672 163.924 336.58 164.188C338.932 164.389 341.31 164.5 343.715 164.5C389.686 164.5 426.957 126.78 426.957 80.25C426.957 33.7197 389.686 -4 343.715 -4Z" fill="#435A2C"/>
<path fill-rule="evenodd" clip-rule="evenodd" d="M329.928 -4C327.523 -4 325.145 -3.88908 322.793 -3.68835C325.885 -3.42425 328.924 -2.98583 331.91 -2.38895C376.073 -1.32196 411.585 35.2462 411.585 80.25C411.585 125.254 376.073 161.822 331.91 162.889C328.924 163.486 325.885 163.924 322.793 164.188C325.145 164.389 327.523 164.5 329.928 164.5C375.899 164.5 413.17 126.78 413.17 80.25C413.17 33.7197 375.899 -4 329.928 -4Z" fill="#435A2C"/>
<path fill-rule="evenodd" clip-rule="evenodd" d="M314.731 -4C312.285 -4 309.866 -3.88908 307.475 -3.68835C310.619 -3.42425 313.709 -2.98583 316.746 -2.38895C361.658 -1.32196 397.771 35.2462 397.771 80.25C397.771 125.254 361.658 161.822 316.746 162.889C313.709 163.486 310.619 163.924 307.475 164.188C309.866 164.389 312.285 164.5 314.731 164.5C361.481 164.5 399.384 126.78 399.384 80.25C399.384 33.7197 361.481 -4 314.731 -4Z" fill="#435A2C"/>
<path fill-rule="evenodd" clip-rule="evenodd" d="M299.412 -4C296.967 -4 294.548 -3.88908 292.156 -3.68835C295.301 -3.42425 298.391 -2.98583 301.428 -2.38895C346.34 -1.32196 382.453 35.2462 382.453 80.25C382.453 125.254 346.34 161.822 301.428 162.889C298.391 163.486 295.301 163.924 292.156 164.188C294.548 164.389 296.967 164.5 299.412 164.5C346.162 164.5 384.065 126.78 384.065 80.25C384.065 33.7197 346.162 -4 299.412 -4Z" fill="#435A2C"/>
<path fill-rule="evenodd" clip-rule="evenodd" d="M286.916 -4C284.552 -4 282.214 -3.88908 279.902 -3.68835C282.942 -3.42425 285.929 -2.98583 288.865 -2.38895C332.28 -1.32196 367.189 35.2462 367.189 80.25C367.189 125.254 332.28 161.822 288.865 162.889C285.929 163.486 282.942 163.924 279.902 164.188C282.214 164.389 284.552 164.5 286.916 164.5C332.108 164.5 368.748 126.78 368.748 80.25C368.748 33.7197 332.108 -4 286.916 -4Z" fill="#435A2C"/>
<path fill-rule="evenodd" clip-rule="evenodd" d="M274.542 -4C272.218 -4 269.921 -3.88908 267.648 -3.68835C270.635 -3.42425 273.571 -2.98583 276.456 -2.38895C319.123 -1.32196 353.43 35.2462 353.43 80.25C353.43 125.254 319.123 161.822 276.456 162.889C273.571 163.486 270.635 163.924 267.648 164.188C269.921 164.389 272.218 164.5 274.542 164.5C318.954 164.5 354.962 126.78 354.962 80.25C354.962 33.7197 318.954 -4 274.542 -4Z" fill="#435A2C"/>
<path fill-rule="evenodd" clip-rule="evenodd" d="M256.522 -4C254.076 -4 251.657 -3.88908 249.266 -3.68835C252.41 -3.42425 255.5 -2.98583 258.537 -2.38895C303.449 -1.32196 339.562 35.2462 339.562 80.25C339.562 125.254 303.449 161.822 258.537 162.889C255.5 163.486 252.41 163.924 249.266 164.188C251.657 164.389 254.076 164.5 256.522 164.5C303.272 164.5 341.175 126.78 341.175 80.25C341.175 33.7197 303.272 -4 256.522 -4Z" fill="#435A2C"/>
<path fill-rule="evenodd" clip-rule="evenodd" d="M242.736 -4C240.291 -4 237.872 -3.88908 235.48 -3.68835C238.625 -3.42425 241.715 -2.98583 244.752 -2.38895C289.664 -1.32196 325.777 35.2462 325.777 80.25C325.777 125.254 289.664 161.822 244.752 162.889C241.715 163.486 238.625 163.924 235.48 164.188C237.872 164.389 240.291 164.5 242.736 164.5C289.486 164.5 327.39 126.78 327.39 80.25C327.39 33.7197 289.486 -4 242.736 -4Z" fill="#435A2C"/>
<path fill-rule="evenodd" clip-rule="evenodd" d="M230.36 -4C227.955 -4 225.577 -3.88908 223.225 -3.68835C226.316 -3.42425 229.355 -2.98583 232.342 -2.38895C276.505 -1.32196 312.016 35.2462 312.016 80.25C312.016 125.254 276.505 161.822 232.342 162.889C229.355 163.486 226.316 163.924 223.225 164.188C225.577 164.389 227.955 164.5 230.36 164.5C276.331 164.5 313.602 126.78 313.602 80.25C313.602 33.7197 276.331 -4 230.36 -4Z" fill="#435A2C"/>
<path fill-rule="evenodd" clip-rule="evenodd" d="M216.575 -4C214.17 -4 211.791 -3.88908 209.439 -3.68835C212.531 -3.42425 215.57 -2.98583 218.556 -2.38895C262.72 -1.32196 298.231 35.2462 298.231 80.25C298.231 125.254 262.72 161.822 218.556 162.889C215.57 163.486 212.531 163.924 209.439 164.188C211.791 164.389 214.17 164.5 216.575 164.5C262.545 164.5 299.817 126.78 299.817 80.25C299.817 33.7197 262.545 -4 216.575 -4Z" fill="#435A2C"/>
</g>
<g style="mix-blend-mode:difference">
<path fill-rule="evenodd" clip-rule="evenodd" d="M202.787 -4C200.383 -4 198.004 -3.88908 195.652 -3.68835C198.744 -3.42425 201.783 -2.98583 204.769 -2.38895C248.933 -1.32196 284.444 35.2462 284.444 80.25C284.444 125.254 248.933 161.822 204.769 162.889C201.783 163.486 198.744 163.924 195.652 164.188C198.004 164.389 200.383 164.5 202.787 164.5C248.758 164.5 286.03 126.78 286.03 80.25C286.03 33.7197 248.758 -4 202.787 -4Z" fill="#435A2C"/>
<path fill-rule="evenodd" clip-rule="evenodd" d="M189 -4C186.596 -4 184.217 -3.88908 181.865 -3.68835C184.957 -3.42425 187.996 -2.98583 190.982 -2.38895C235.146 -1.32196 270.657 35.2462 270.657 80.25C270.657 125.254 235.146 161.822 190.982 162.889C187.996 163.486 184.957 163.924 181.865 164.188C184.217 164.389 186.596 164.5 189 164.5C234.971 164.5 272.243 126.78 272.243 80.25C272.243 33.7197 234.971 -4 189 -4Z" fill="#435A2C"/>
<path fill-rule="evenodd" clip-rule="evenodd" d="M173.803 -4C171.357 -4 168.939 -3.88908 166.547 -3.68835C169.691 -3.42425 172.782 -2.98583 175.818 -2.38895C220.73 -1.32196 256.844 35.2462 256.844 80.25C256.844 125.254 220.73 161.822 175.818 162.889C172.782 163.486 169.691 163.924 166.547 164.188C168.939 164.389 171.357 164.5 173.803 164.5C220.553 164.5 258.456 126.78 258.456 80.25C258.456 33.7197 220.553 -4 173.803 -4Z" fill="#435A2C"/>
<path fill-rule="evenodd" clip-rule="evenodd" d="M160.018 -4C157.572 -4 155.154 -3.88908 152.762 -3.68835C155.906 -3.42425 158.996 -2.98583 162.033 -2.38895C206.945 -1.32196 243.058 35.2462 243.058 80.25C243.058 125.254 206.945 161.822 162.033 162.889C158.996 163.486 155.906 163.924 152.762 164.188C155.154 164.389 157.572 164.5 160.018 164.5C206.768 164.5 244.671 126.78 244.671 80.25C244.671 33.7197 206.768 -4 160.018 -4Z" fill="#435A2C"/>
<path fill-rule="evenodd" clip-rule="evenodd" d="M150.463 -4C148.14 -4 145.843 -3.88908 143.57 -3.68835C146.557 -3.42425 149.493 -2.98583 152.378 -2.38895C195.045 -1.32196 229.352 35.2462 229.352 80.25C229.352 125.254 195.045 161.822 152.378 162.889C149.493 163.486 146.557 163.924 143.57 164.188C145.843 164.389 148.14 164.5 150.463 164.5C194.876 164.5 230.884 126.78 230.884 80.25C230.884 33.7197 194.876 -4 150.463 -4Z" fill="#435A2C"/>
<path fill-rule="evenodd" clip-rule="evenodd" d="M135.266 -4C132.902 -4 130.564 -3.88908 128.252 -3.68835C131.291 -3.42425 134.279 -2.98583 137.214 -2.38895C180.629 -1.32196 215.539 35.2462 215.539 80.25C215.539 125.254 180.629 161.822 137.214 162.889C134.279 163.486 131.291 163.924 128.252 164.188C130.564 164.389 132.902 164.5 135.266 164.5C180.458 164.5 217.097 126.78 217.097 80.25C217.097 33.7197 180.458 -4 135.266 -4Z" fill="#435A2C"/>
<path fill-rule="evenodd" clip-rule="evenodd" d="M118.658 -4C116.213 -4 113.794 -3.88908 111.402 -3.68835C114.547 -3.42425 117.637 -2.98583 120.674 -2.38895C165.586 -1.32196 201.699 35.2462 201.699 80.25C201.699 125.254 165.586 161.822 120.674 162.889C117.637 163.486 114.547 163.924 111.402 164.188C113.794 164.389 116.213 164.5 118.658 164.5C165.408 164.5 203.311 126.78 203.311 80.25C203.311 33.7197 165.408 -4 118.658 -4Z" fill="#435A2C"/>
<path fill-rule="evenodd" clip-rule="evenodd" d="M104.871 -4C102.426 -4 100.007 -3.88908 97.6152 -3.68835C100.759 -3.42425 103.85 -2.98583 106.887 -2.38895C151.799 -1.32196 187.912 35.2462 187.912 80.25C187.912 125.254 151.799 161.822 106.887 162.889C103.85 163.486 100.759 163.924 97.6152 164.188C100.007 164.389 102.426 164.5 104.871 164.5C151.621 164.5 189.524 126.78 189.524 80.25C189.524 33.7197 151.621 -4 104.871 -4Z" fill="#435A2C"/>
<path fill-rule="evenodd" clip-rule="evenodd" d="M92.4964 -4C90.0916 -4 87.7133 -3.88908 85.3613 -3.68835C88.4532 -3.42425 91.4922 -2.98583 94.4783 -2.38895C138.642 -1.32196 174.153 35.2462 174.153 80.25C174.153 125.254 138.642 161.822 94.4783 162.889C91.4922 163.486 88.4532 163.924 85.3613 164.188C87.7133 164.389 90.0916 164.5 92.4964 164.5C138.467 164.5 175.739 126.78 175.739 80.25C175.739 33.7197 138.467 -4 92.4964 -4Z" fill="#435A2C"/>
<path fill-rule="evenodd" clip-rule="evenodd" d="M78.7093 -4C76.3045 -4 73.9261 -3.88908 71.5742 -3.68835C74.6661 -3.42425 77.7051 -2.98583 80.6912 -2.38895C124.855 -1.32196 160.366 35.2462 160.366 80.25C160.366 125.254 124.855 161.822 80.6912 162.889C77.7051 163.486 74.6661 163.924 71.5742 164.188C73.9261 164.389 76.3045 164.5 78.7093 164.5C124.68 164.5 161.951 126.78 161.951 80.25C161.951 33.7197 124.68 -4 78.7093 -4Z" fill="#435A2C"/>
<path fill-rule="evenodd" clip-rule="evenodd" d="M63.5128 -4C61.0673 -4 58.6486 -3.88908 56.2568 -3.68835C59.4011 -3.42425 62.4916 -2.98583 65.5284 -2.38895C110.44 -1.32196 146.553 35.2462 146.553 80.25C146.553 125.254 110.44 161.822 65.5284 162.889C62.4916 163.486 59.4011 163.924 56.2568 164.188C58.6486 164.389 61.0673 164.5 63.5128 164.5C110.263 164.5 148.166 126.78 148.166 80.25C148.166 33.7197 110.263 -4 63.5128 -4Z" fill="#435A2C"/>
<path fill-rule="evenodd" clip-rule="evenodd" d="M51.137 -4C48.7322 -4 46.3539 -3.88908 44.002 -3.68835C47.0938 -3.42425 50.1328 -2.98583 53.119 -2.38895C97.2823 -1.32196 132.794 35.2462 132.794 80.25C132.794 125.254 97.2823 161.822 53.119 162.889C50.1328 163.486 47.0938 163.924 44.002 164.188C46.3539 164.389 48.7322 164.5 51.137 164.5C97.1079 164.5 134.379 126.78 134.379 80.25C134.379 33.7197 97.1079 -4 51.137 -4Z" fill="#435A2C"/>
<path fill-rule="evenodd" clip-rule="evenodd" d="M37.3509 -4C34.9461 -4 32.5677 -3.88908 30.2158 -3.68835C33.3077 -3.42425 36.3467 -2.98583 39.3328 -2.38895C83.4961 -1.32196 119.008 35.2462 119.008 80.25C119.008 125.254 83.4961 161.822 39.3328 162.889C36.3467 163.486 33.3077 163.924 30.2158 164.188C32.5677 164.389 34.9461 164.5 37.3509 164.5C83.3217 164.5 120.593 126.78 120.593 80.25C120.593 33.7197 83.3217 -4 37.3509 -4Z" fill="#435A2C"/>
<path fill-rule="evenodd" clip-rule="evenodd" d="M24.9751 -4C22.611 -4 20.273 -3.88908 17.9609 -3.68835C21.0004 -3.42425 23.9879 -2.98583 26.9234 -2.38895C70.3382 -1.32196 105.248 35.2462 105.248 80.25C105.248 125.254 70.3382 161.822 26.9234 162.889C23.9879 163.486 21.0004 163.924 17.9609 164.188C20.273 164.389 22.611 164.5 24.9751 164.5C70.1667 164.5 106.806 126.78 106.806 80.25C106.806 33.7197 70.1667 -4 24.9751 -4Z" fill="#435A2C"/>
<path fill-rule="evenodd" clip-rule="evenodd" d="M8.36731 -4C5.92177 -4 3.50311 -3.88908 1.11133 -3.68835C4.25559 -3.42425 7.3461 -2.98583 10.3829 -2.38895C55.2947 -1.32196 91.408 35.2462 91.408 80.25C91.408 125.254 55.2947 161.822 10.3829 162.889C7.3461 163.486 4.25559 163.924 1.11133 164.188C3.50311 164.389 5.92177 164.5 8.36731 164.5C55.1173 164.5 93.0204 126.78 93.0204 80.25C93.0204 33.7197 55.1173 -4 8.36731 -4Z" fill="#435A2C"/>
<path fill-rule="evenodd" clip-rule="evenodd" d="M-2.59721 -4C-4.96123 -4 -7.29927 -3.88908 -9.61133 -3.68835C-6.57188 -3.42425 -3.58439 -2.98583 -0.648849 -2.38895C42.7659 -1.32196 77.6754 35.2462 77.6754 80.25C77.6754 125.254 42.7659 161.822 -0.648849 162.889C-3.58439 163.486 -6.57188 163.924 -9.61133 164.188C-7.29927 164.389 -4.96123 164.5 -2.59721 164.5C42.5945 164.5 79.2341 126.78 79.2341 80.25C79.2341 33.7197 42.5945 -4 -2.59721 -4Z" fill="#435A2C"/>
<path fill-rule="evenodd" clip-rule="evenodd" d="M-17.7946 -4C-20.1994 -4 -22.5778 -3.88908 -24.9297 -3.68835C-21.8378 -3.42425 -18.7988 -2.98583 -15.8127 -2.38895C28.3506 -1.32196 63.862 35.2462 63.862 80.25C63.862 125.254 28.3506 161.822 -15.8127 162.889C-18.7988 163.486 -21.8378 163.924 -24.9297 164.188C-22.5778 164.389 -20.1994 164.5 -17.7946 164.5C28.1762 164.5 65.4476 126.78 65.4476 80.25C65.4476 33.7197 28.1762 -4 -17.7946 -4Z" fill="#435A2C"/>
<path fill-rule="evenodd" clip-rule="evenodd" d="M-30.1705 -4C-32.5345 -4 -34.8725 -3.88908 -37.1846 -3.68835C-34.1451 -3.42425 -31.1576 -2.98583 -28.2221 -2.38895C15.1927 -1.32196 50.1022 35.2462 50.1022 80.25C50.1022 125.254 15.1927 161.822 -28.2221 162.889C-31.1576 163.486 -34.1451 163.924 -37.1846 164.188C-34.8725 164.389 -32.5345 164.5 -30.1705 164.5C15.0212 164.5 51.6609 126.78 51.6609 80.25C51.6609 33.7197 15.0212 -4 -30.1705 -4Z" fill="#435A2C"/>
<path fill-rule="evenodd" clip-rule="evenodd" d="M-46.7782 -4C-49.2237 -4 -51.6424 -3.88908 -54.0342 -3.68835C-50.8899 -3.42425 -47.7994 -2.98583 -44.7626 -2.38895C0.149185 -1.32196 36.2625 35.2462 36.2625 80.25C36.2625 125.254 0.149185 161.822 -44.7626 162.889C-47.7994 163.486 -50.8899 163.924 -54.0342 164.188C-51.6424 164.389 -49.2237 164.5 -46.7782 164.5C-0.028183 164.5 37.8749 126.78 37.8749 80.25C37.8749 33.7197 -0.028183 -4 -46.7782 -4Z" fill="#435A2C"/>
<path fill-rule="evenodd" clip-rule="evenodd" d="M-57.7427 -4C-60.1067 -4 -62.4448 -3.88908 -64.7568 -3.68835C-61.7174 -3.42425 -58.7299 -2.98583 -55.7944 -2.38895C-12.3796 -1.32196 22.5299 35.2462 22.5299 80.25C22.5299 125.254 -12.3796 161.822 -55.7944 162.889C-58.7299 163.486 -61.7174 163.924 -64.7568 164.188C-62.4448 164.389 -60.1067 164.5 -57.7427 164.5C-12.551 164.5 24.0886 126.78 24.0886 80.25C24.0886 33.7197 -12.551 -4 -57.7427 -4Z" fill="#435A2C"/>
<path fill-rule="evenodd" clip-rule="evenodd" d="M-72.9401 -4C-75.3449 -4 -77.7233 -3.88908 -80.0752 -3.68835C-76.9833 -3.42425 -73.9443 -2.98583 -70.9582 -2.38895C-26.7949 -1.32196 8.71651 35.2462 8.71651 80.25C8.71651 125.254 -26.7949 161.822 -70.9582 162.889C-73.9443 163.486 -76.9833 163.924 -80.0752 164.188C-77.7233 164.389 -75.3449 164.5 -72.9401 164.5C-26.9693 164.5 10.3021 126.78 10.3021 80.25C10.3021 33.7197 -26.9693 -4 -72.9401 -4Z" fill="#435A2C"/>
</g>
<g style="mix-blend-mode:difference">
<path fill-rule="evenodd" clip-rule="evenodd" d="M371.287 333C368.883 333 366.504 333.111 364.152 333.312C367.244 333.576 370.283 334.014 373.269 334.611C417.433 335.678 452.944 372.246 452.944 417.25C452.944 462.254 417.433 498.822 373.269 499.889C370.283 500.486 367.244 500.924 364.152 501.188C366.504 501.389 368.883 501.5 371.287 501.5C417.258 501.5 454.53 463.78 454.53 417.25C454.53 370.72 417.258 333 371.287 333Z" fill="#435A2C"/>
<path fill-rule="evenodd" clip-rule="evenodd" d="M356.09 333C353.644 333 351.226 333.111 348.834 333.312C351.978 333.576 355.069 334.014 358.106 334.611C403.017 335.678 439.131 372.246 439.131 417.25C439.131 462.254 403.017 498.822 358.106 499.889C355.069 500.486 351.978 500.924 348.834 501.188C351.226 501.389 353.644 501.5 356.09 501.5C402.84 501.5 440.743 463.78 440.743 417.25C440.743 370.72 402.84 333 356.09 333Z" fill="#435A2C"/>
<path fill-rule="evenodd" clip-rule="evenodd" d="M343.715 333C341.31 333 338.932 333.111 336.58 333.312C339.672 333.576 342.711 334.014 345.697 334.611C389.86 335.678 425.372 372.246 425.372 417.25C425.372 462.254 389.86 498.822 345.697 499.889C342.711 500.486 339.672 500.924 336.58 501.188C338.932 501.389 341.31 501.5 343.715 501.5C389.686 501.5 426.957 463.78 426.957 417.25C426.957 370.72 389.686 333 343.715 333Z" fill="#435A2C"/>
<path fill-rule="evenodd" clip-rule="evenodd" d="M329.928 333C327.523 333 325.145 333.111 322.793 333.312C325.885 333.576 328.924 334.014 331.91 334.611C376.073 335.678 411.585 372.246 411.585 417.25C411.585 462.254 376.073 498.822 331.91 499.889C328.924 500.486 325.885 500.924 322.793 501.188C325.145 501.389 327.523 501.5 329.928 501.5C375.899 501.5 413.17 463.78 413.17 417.25C413.17 370.72 375.899 333 329.928 333Z" fill="#435A2C"/>
<path fill-rule="evenodd" clip-rule="evenodd" d="M314.731 333C312.285 333 309.866 333.111 307.475 333.312C310.619 333.576 313.709 334.014 316.746 334.611C361.658 335.678 397.771 372.246 397.771 417.25C397.771 462.254 361.658 498.822 316.746 499.889C313.709 500.486 310.619 500.924 307.475 501.188C309.866 501.389 312.285 501.5 314.731 501.5C361.481 501.5 399.384 463.78 399.384 417.25C399.384 370.72 361.481 333 314.731 333Z" fill="#435A2C"/>
<path fill-rule="evenodd" clip-rule="evenodd" d="M299.412 333C296.967 333 294.548 333.111 292.156 333.312C295.301 333.576 298.391 334.014 301.428 334.611C346.34 335.678 382.453 372.246 382.453 417.25C382.453 462.254 346.34 498.822 301.428 499.889C298.391 500.486 295.301 500.924 292.156 501.188C294.548 501.389 296.967 501.5 299.412 501.5C346.162 501.5 384.065 463.78 384.065 417.25C384.065 370.72 346.162 333 299.412 333Z" fill="#435A2C"/>
<path fill-rule="evenodd" clip-rule="evenodd" d="M286.916 333C284.552 333 282.214 333.111 279.902 333.312C282.942 333.576 285.929 334.014 288.865 334.611C332.28 335.678 367.189 372.246 367.189 417.25C367.189 462.254 332.28 498.822 288.865 499.889C285.929 500.486 282.942 500.924 279.902 501.188C282.214 501.389 284.552 501.5 286.916 501.5C332.108 501.5 368.748 463.78 368.748 417.25C368.748 370.72 332.108 333 286.916 333Z" fill="#435A2C"/>
<path fill-rule="evenodd" clip-rule="evenodd" d="M274.542 333C272.218 333 269.921 333.111 267.648 333.312C270.635 333.576 273.571 334.014 276.456 334.611C319.123 335.678 353.43 372.246 353.43 417.25C353.43 462.254 319.123 498.822 276.456 499.889C273.571 500.486 270.635 500.924 267.648 501.188C269.921 501.389 272.218 501.5 274.542 501.5C318.954 501.5 354.962 463.78 354.962 417.25C354.962 370.72 318.954 333 274.542 333Z" fill="#435A2C"/>
<path fill-rule="evenodd" clip-rule="evenodd" d="M256.522 333C254.076 333 251.657 333.111 249.266 333.312C252.41 333.576 255.5 334.014 258.537 334.611C303.449 335.678 339.562 372.246 339.562 417.25C339.562 462.254 303.449 498.822 258.537 499.889C255.5 500.486 252.41 500.924 249.266 501.188C251.657 501.389 254.076 501.5 256.522 501.5C303.272 501.5 341.175 463.78 341.175 417.25C341.175 370.72 303.272 333 256.522 333Z" fill="#435A2C"/>
<path fill-rule="evenodd" clip-rule="evenodd" d="M242.736 333C240.291 333 237.872 333.111 235.48 333.312C238.625 333.576 241.715 334.014 244.752 334.611C289.664 335.678 325.777 372.246 325.777 417.25C325.777 462.254 289.664 498.822 244.752 499.889C241.715 500.486 238.625 500.924 235.48 501.188C237.872 501.389 240.291 501.5 242.736 501.5C289.486 501.5 327.39 463.78 327.39 417.25C327.39 370.72 289.486 333 242.736 333Z" fill="#435A2C"/>
<path fill-rule="evenodd" clip-rule="evenodd" d="M230.36 333C227.955 333 225.577 333.111 223.225 333.312C226.316 333.576 229.355 334.014 232.342 334.611C276.505 335.678 312.016 372.246 312.016 417.25C312.016 462.254 276.505 498.822 232.342 499.889C229.355 500.486 226.316 500.924 223.225 501.188C225.577 501.389 227.955 501.5 230.36 501.5C276.331 501.5 313.602 463.78 313.602 417.25C313.602 370.72 276.331 333 230.36 333Z" fill="#435A2C"/>
<path fill-rule="evenodd" clip-rule="evenodd" d="M216.575 333C214.17 333 211.791 333.111 209.439 333.312C212.531 333.576 215.57 334.014 218.556 334.611C262.72 335.678 298.231 372.246 298.231 417.25C298.231 462.254 262.72 498.822 218.556 499.889C215.57 500.486 212.531 500.924 209.439 501.188C211.791 501.389 214.17 501.5 216.575 501.5C262.545 501.5 299.817 463.78 299.817 417.25C299.817 370.72 262.545 333 216.575 333Z" fill="#435A2C"/>
</g>
<g style="mix-blend-mode:difference">
<path fill-rule="evenodd" clip-rule="evenodd" d="M202.787 333C200.383 333 198.004 333.111 195.652 333.312C198.744 333.576 201.783 334.014 204.769 334.611C248.933 335.678 284.444 372.246 284.444 417.25C284.444 462.254 248.933 498.822 204.769 499.889C201.783 500.486 198.744 500.924 195.652 501.188C198.004 501.389 200.383 501.5 202.787 501.5C248.758 501.5 286.03 463.78 286.03 417.25C286.03 370.72 248.758 333 202.787 333Z" fill="#435A2C"/>
<path fill-rule="evenodd" clip-rule="evenodd" d="M189 333C186.596 333 184.217 333.111 181.865 333.312C184.957 333.576 187.996 334.014 190.982 334.611C235.146 335.678 270.657 372.246 270.657 417.25C270.657 462.254 235.146 498.822 190.982 499.889C187.996 500.486 184.957 500.924 181.865 501.188C184.217 501.389 186.596 501.5 189 501.5C234.971 501.5 272.243 463.78 272.243 417.25C272.243 370.72 234.971 333 189 333Z" fill="#435A2C"/>
<path fill-rule="evenodd" clip-rule="evenodd" d="M173.803 333C171.357 333 168.939 333.111 166.547 333.312C169.691 333.576 172.782 334.014 175.818 334.611C220.73 335.678 256.844 372.246 256.844 417.25C256.844 462.254 220.73 498.822 175.818 499.889C172.782 500.486 169.691 500.924 166.547 501.188C168.939 501.389 171.357 501.5 173.803 501.5C220.553 501.5 258.456 463.78 258.456 417.25C258.456 370.72 220.553 333 173.803 333Z" fill="#435A2C"/>
<path fill-rule="evenodd" clip-rule="evenodd" d="M160.018 333C157.572 333 155.154 333.111 152.762 333.312C155.906 333.576 158.996 334.014 162.033 334.611C206.945 335.678 243.058 372.246 243.058 417.25C243.058 462.254 206.945 498.822 162.033 499.889C158.996 500.486 155.906 500.924 152.762 501.188C155.154 501.389 157.572 501.5 160.018 501.5C206.768 501.5 244.671 463.78 244.671 417.25C244.671 370.72 206.768 333 160.018 333Z" fill="#435A2C"/>
<path fill-rule="evenodd" clip-rule="evenodd" d="M150.463 333C148.14 333 145.843 333.111 143.57 333.312C146.557 333.576 149.493 334.014 152.378 334.611C195.045 335.678 229.352 372.246 229.352 417.25C229.352 462.254 195.045 498.822 152.378 499.889C149.493 500.486 146.557 500.924 143.57 501.188C145.843 501.389 148.14 501.5 150.463 501.5C194.876 501.5 230.884 463.78 230.884 417.25C230.884 370.72 194.876 333 150.463 333Z" fill="#435A2C"/>
<path fill-rule="evenodd" clip-rule="evenodd" d="M135.266 333C132.902 333 130.564 333.111 128.252 333.312C131.291 333.576 134.279 334.014 137.214 334.611C180.629 335.678 215.539 372.246 215.539 417.25C215.539 462.254 180.629 498.822 137.214 499.889C134.279 500.486 131.291 500.924 128.252 501.188C130.564 501.389 132.902 501.5 135.266 501.5C180.458 501.5 217.097 463.78 217.097 417.25C217.097 370.72 180.458 333 135.266 333Z" fill="#435A2C"/>
<path fill-rule="evenodd" clip-rule="evenodd" d="M118.658 333C116.213 333 113.794 333.111 111.402 333.312C114.547 333.576 117.637 334.014 120.674 334.611C165.586 335.678 201.699 372.246 201.699 417.25C201.699 462.254 165.586 498.822 120.674 499.889C117.637 500.486 114.547 500.924 111.402 501.188C113.794 501.389 116.213 501.5 118.658 501.5C165.408 501.5 203.311 463.78 203.311 417.25C203.311 370.72 165.408 333 118.658 333Z" fill="#435A2C"/>
<path fill-rule="evenodd" clip-rule="evenodd" d="M104.871 333C102.426 333 100.007 333.111 97.6152 333.312C100.759 333.576 103.85 334.014 106.887 334.611C151.799 335.678 187.912 372.246 187.912 417.25C187.912 462.254 151.799 498.822 106.887 499.889C103.85 500.486 100.759 500.924 97.6152 501.188C100.007 501.389 102.426 501.5 104.871 501.5C151.621 501.5 189.524 463.78 189.524 417.25C189.524 370.72 151.621 333 104.871 333Z" fill="#435A2C"/>
<path fill-rule="evenodd" clip-rule="evenodd" d="M92.4964 333C90.0916 333 87.7133 333.111 85.3613 333.312C88.4532 333.576 91.4922 334.014 94.4783 334.611C138.642 335.678 174.153 372.246 174.153 417.25C174.153 462.254 138.642 498.822 94.4783 499.889C91.4922 500.486 88.4532 500.924 85.3613 501.188C87.7133 501.389 90.0916 501.5 92.4964 501.5C138.467 501.5 175.739 463.78 175.739 417.25C175.739 370.72 138.467 333 92.4964 333Z" fill="#435A2C"/>
<path fill-rule="evenodd" clip-rule="evenodd" d="M78.7093 333C76.3045 333 73.9261 333.111 71.5742 333.312C74.6661 333.576 77.7051 334.014 80.6912 334.611C124.855 335.678 160.366 372.246 160.366 417.25C160.366 462.254 124.855 498.822 80.6912 499.889C77.7051 500.486 74.6661 500.924 71.5742 501.188C73.9261 501.389 76.3045 501.5 78.7093 501.5C124.68 501.5 161.951 463.78 161.951 417.25C161.951 370.72 124.68 333 78.7093 333Z" fill="#435A2C"/>
<path fill-rule="evenodd" clip-rule="evenodd" d="M63.5128 333C61.0673 333 58.6486 333.111 56.2568 333.312C59.4011 333.576 62.4916 334.014 65.5284 334.611C110.44 335.678 146.553 372.246 146.553 417.25C146.553 462.254 110.44 498.822 65.5284 499.889C62.4916 500.486 59.4011 500.924 56.2568 501.188C58.6486 501.389 61.0673 501.5 63.5128 501.5C110.263 501.5 148.166 463.78 148.166 417.25C148.166 370.72 110.263 333 63.5128 333Z" fill="#435A2C"/>
<path fill-rule="evenodd" clip-rule="evenodd" d="M51.137 333C48.7322 333 46.3539 333.111 44.002 333.312C47.0938 333.576 50.1328 334.014 53.119 334.611C97.2823 335.678 132.794 372.246 132.794 417.25C132.794 462.254 97.2823 498.822 53.119 499.889C50.1328 500.486 47.0938 500.924 44.002 501.188C46.3539 501.389 48.7322 501.5 51.137 501.5C97.1079 501.5 134.379 463.78 134.379 417.25C134.379 370.72 97.1079 333 51.137 333Z" fill="#435A2C"/>
<path fill-rule="evenodd" clip-rule="evenodd" d="M37.3509 333C34.9461 333 32.5677 333.111 30.2158 333.312C33.3077 333.576 36.3467 334.014 39.3328 334.611C83.4961 335.678 119.008 372.246 119.008 417.25C119.008 462.254 83.4961 498.822 39.3328 499.889C36.3467 500.486 33.3077 500.924 30.2158 501.188C32.5677 501.389 34.9461 501.5 37.3509 501.5C83.3217 501.5 120.593 463.78 120.593 417.25C120.593 370.72 83.3217 333 37.3509 333Z" fill="#435A2C"/>
<path fill-rule="evenodd" clip-rule="evenodd" d="M24.9751 333C22.611 333 20.273 333.111 17.9609 333.312C21.0004 333.576 23.9879 334.014 26.9234 334.611C70.3382 335.678 105.248 372.246 105.248 417.25C105.248 462.254 70.3382 498.822 26.9234 499.889C23.9879 500.486 21.0004 500.924 17.9609 501.188C20.273 501.389 22.611 501.5 24.9751 501.5C70.1667 501.5 106.806 463.78 106.806 417.25C106.806 370.72 70.1667 333 24.9751 333Z" fill="#435A2C"/>
<path fill-rule="evenodd" clip-rule="evenodd" d="M8.36731 333C5.92177 333 3.50311 333.111 1.11133 333.312C4.25559 333.576 7.3461 334.014 10.3829 334.611C55.2947 335.678 91.408 372.246 91.408 417.25C91.408 462.254 55.2947 498.822 10.3829 499.889C7.3461 500.486 4.25559 500.924 1.11133 501.188C3.50311 501.389 5.92177 501.5 8.36731 501.5C55.1173 501.5 93.0204 463.78 93.0204 417.25C93.0204 370.72 55.1173 333 8.36731 333Z" fill="#435A2C"/>
<path fill-rule="evenodd" clip-rule="evenodd" d="M-2.59721 333C-4.96123 333 -7.29927 333.111 -9.61133 333.312C-6.57188 333.576 -3.58439 334.014 -0.648849 334.611C42.7659 335.678 77.6754 372.246 77.6754 417.25C77.6754 462.254 42.7659 498.822 -0.648849 499.889C-3.58439 500.486 -6.57188 500.924 -9.61133 501.188C-7.29927 501.389 -4.96123 501.5 -2.59721 501.5C42.5945 501.5 79.2341 463.78 79.2341 417.25C79.2341 370.72 42.5945 333 -2.59721 333Z" fill="#435A2C"/>
<path fill-rule="evenodd" clip-rule="evenodd" d="M-17.7946 333C-20.1994 333 -22.5778 333.111 -24.9297 333.312C-21.8378 333.576 -18.7988 334.014 -15.8127 334.611C28.3506 335.678 63.862 372.246 63.862 417.25C63.862 462.254 28.3506 498.822 -15.8127 499.889C-18.7988 500.486 -21.8378 500.924 -24.9297 501.188C-22.5778 501.389 -20.1994 501.5 -17.7946 501.5C28.1762 501.5 65.4476 463.78 65.4476 417.25C65.4476 370.72 28.1762 333 -17.7946 333Z" fill="#435A2C"/>
<path fill-rule="evenodd" clip-rule="evenodd" d="M-30.1705 333C-32.5345 333 -34.8725 333.111 -37.1846 333.312C-34.1451 333.576 -31.1576 334.014 -28.2221 334.611C15.1927 335.678 50.1022 372.246 50.1022 417.25C50.1022 462.254 15.1927 498.822 -28.2221 499.889C-31.1576 500.486 -34.1451 500.924 -37.1846 501.188C-34.8725 501.389 -32.5345 501.5 -30.1705 501.5C15.0212 501.5 51.6609 463.78 51.6609 417.25C51.6609 370.72 15.0212 333 -30.1705 333Z" fill="#435A2C"/>
<path fill-rule="evenodd" clip-rule="evenodd" d="M-46.7782 333C-49.2237 333 -51.6424 333.111 -54.0342 333.312C-50.8899 333.576 -47.7994 334.014 -44.7626 334.611C0.149185 335.678 36.2625 372.246 36.2625 417.25C36.2625 462.254 0.149185 498.822 -44.7626 499.889C-47.7994 500.486 -50.8899 500.924 -54.0342 501.188C-51.6424 501.389 -49.2237 501.5 -46.7782 501.5C-0.028183 501.5 37.8749 463.78 37.8749 417.25C37.8749 370.72 -0.028183 333 -46.7782 333Z" fill="#435A2C"/>
<path fill-rule="evenodd" clip-rule="evenodd" d="M-57.7427 333C-60.1067 333 -62.4448 333.111 -64.7568 333.312C-61.7174 333.576 -58.7299 334.014 -55.7944 334.611C-12.3796 335.678 22.5299 372.246 22.5299 417.25C22.5299 462.254 -12.3796 498.822 -55.7944 499.889C-58.7299 500.486 -61.7174 500.924 -64.7568 501.188C-62.4448 501.389 -60.1067 501.5 -57.7427 501.5C-12.551 501.5 24.0886 463.78 24.0886 417.25C24.0886 370.72 -12.551 333 -57.7427 333Z" fill="#435A2C"/>
<path fill-rule="evenodd" clip-rule="evenodd" d="M-72.9401 333C-75.3449 333 -77.7233 333.111 -80.0752 333.312C-76.9833 333.576 -73.9443 334.014 -70.9582 334.611C-26.7949 335.678 8.71651 372.246 8.71651 417.25C8.71651 462.254 -26.7949 498.822 -70.9582 499.889C-73.9443 500.486 -76.9833 500.924 -80.0752 501.188C-77.7233 501.389 -75.3449 501.5 -72.9401 501.5C-26.9693 501.5 10.3021 463.78 10.3021 417.25C10.3021 370.72 -26.9693 333 -72.9401 333Z" fill="#435A2C"/>
</g>
<g style="mix-blend-mode:difference">
<path fill-rule="evenodd" clip-rule="evenodd" d="M372.819 164.5C370.414 164.5 368.036 164.611 365.684 164.812C368.775 165.076 371.814 165.514 374.801 166.111C418.964 167.178 454.475 203.746 454.475 248.75C454.475 293.754 418.964 330.322 374.801 331.389C371.814 331.986 368.775 332.424 365.684 332.688C368.036 332.889 370.414 333 372.819 333C418.789 333 456.061 295.28 456.061 248.75C456.061 202.22 418.789 164.5 372.819 164.5Z" fill="#435A2C"/>
<path fill-rule="evenodd" clip-rule="evenodd" d="M357.621 164.5C355.176 164.5 352.757 164.611 350.365 164.812C353.509 165.076 356.6 165.514 359.637 166.111C404.549 167.178 440.662 203.746 440.662 248.75C440.662 293.754 404.549 330.322 359.637 331.389C356.6 331.986 353.509 332.424 350.365 332.688C352.757 332.889 355.176 333 357.621 333C404.371 333 442.274 295.28 442.274 248.75C442.274 202.22 404.371 164.5 357.621 164.5Z" fill="#435A2C"/>
<path fill-rule="evenodd" clip-rule="evenodd" d="M345.246 164.5C342.842 164.5 340.463 164.611 338.111 164.812C341.203 165.076 344.242 165.514 347.228 166.111C391.392 167.178 426.903 203.746 426.903 248.75C426.903 293.754 391.392 330.322 347.228 331.389C344.242 331.986 341.203 332.424 338.111 332.688C340.463 332.889 342.842 333 345.246 333C391.217 333 428.489 295.28 428.489 248.75C428.489 202.22 391.217 164.5 345.246 164.5Z" fill="#435A2C"/>
<path fill-rule="evenodd" clip-rule="evenodd" d="M331.459 164.5C329.054 164.5 326.676 164.611 324.324 164.812C327.416 165.076 330.455 165.514 333.441 166.111C377.605 167.178 413.116 203.746 413.116 248.75C413.116 293.754 377.605 330.322 333.441 331.389C330.455 331.986 327.416 332.424 324.324 332.688C326.676 332.889 329.054 333 331.459 333C377.43 333 414.701 295.28 414.701 248.75C414.701 202.22 377.43 164.5 331.459 164.5Z" fill="#435A2C"/>
<path fill-rule="evenodd" clip-rule="evenodd" d="M316.262 164.5C313.816 164.5 311.398 164.611 309.006 164.812C312.15 165.076 315.241 165.514 318.277 166.111C363.189 167.178 399.303 203.746 399.303 248.75C399.303 293.754 363.189 330.322 318.277 331.389C315.241 331.986 312.15 332.424 309.006 332.688C311.398 332.889 313.816 333 316.262 333C363.012 333 400.915 295.28 400.915 248.75C400.915 202.22 363.012 164.5 316.262 164.5Z" fill="#435A2C"/>
<path fill-rule="evenodd" clip-rule="evenodd" d="M300.945 164.5C298.5 164.5 296.081 164.611 293.689 164.812C296.834 165.076 299.924 165.514 302.961 166.111C347.873 167.178 383.986 203.746 383.986 248.75C383.986 293.754 347.873 330.322 302.961 331.389C299.924 331.986 296.834 332.424 293.689 332.688C296.081 332.889 298.5 333 300.945 333C347.695 333 385.599 295.28 385.599 248.75C385.599 202.22 347.695 164.5 300.945 164.5Z" fill="#435A2C"/>
<path fill-rule="evenodd" clip-rule="evenodd" d="M288.448 164.5C286.084 164.5 283.746 164.611 281.434 164.812C284.473 165.076 287.461 165.514 290.396 166.111C333.811 167.178 368.72 203.746 368.72 248.75C368.72 293.754 333.811 330.322 290.396 331.389C287.461 331.986 284.473 332.424 281.434 332.688C283.746 332.889 286.084 333 288.448 333C333.639 333 370.279 295.28 370.279 248.75C370.279 202.22 333.639 164.5 288.448 164.5Z" fill="#435A2C"/>
<path fill-rule="evenodd" clip-rule="evenodd" d="M276.073 164.5C273.75 164.5 271.452 164.611 269.18 164.812C272.167 165.076 275.103 165.514 277.988 166.111C320.654 167.178 354.962 203.746 354.962 248.75C354.962 293.754 320.654 330.322 277.988 331.389C275.103 331.986 272.167 332.424 269.18 332.688C271.452 332.889 273.75 333 276.073 333C320.485 333 356.493 295.28 356.493 248.75C356.493 202.22 320.485 164.5 276.073 164.5Z" fill="#435A2C"/>
<path fill-rule="evenodd" clip-rule="evenodd" d="M258.053 164.5C255.607 164.5 253.189 164.611 250.797 164.812C253.941 165.076 257.032 165.514 260.068 166.111C304.98 167.178 341.094 203.746 341.094 248.75C341.094 293.754 304.98 330.322 260.068 331.389C257.032 331.986 253.941 332.424 250.797 332.688C253.189 332.889 255.607 333 258.053 333C304.803 333 342.706 295.28 342.706 248.75C342.706 202.22 304.803 164.5 258.053 164.5Z" fill="#435A2C"/>
<path fill-rule="evenodd" clip-rule="evenodd" d="M244.268 164.5C241.822 164.5 239.404 164.611 237.012 164.812C240.156 165.076 243.246 165.514 246.283 166.111C291.195 167.178 327.308 203.746 327.308 248.75C327.308 293.754 291.195 330.322 246.283 331.389C243.246 331.986 240.156 332.424 237.012 332.688C239.404 332.889 241.822 333 244.268 333C291.018 333 328.921 295.28 328.921 248.75C328.921 202.22 291.018 164.5 244.268 164.5Z" fill="#435A2C"/>
<path fill-rule="evenodd" clip-rule="evenodd" d="M231.891 164.5C229.486 164.5 227.108 164.611 224.756 164.812C227.848 165.076 230.887 165.514 233.873 166.111C278.036 167.178 313.548 203.746 313.548 248.75C313.548 293.754 278.036 330.322 233.873 331.389C230.887 331.986 227.848 332.424 224.756 332.688C227.108 332.889 229.486 333 231.891 333C277.862 333 315.133 295.28 315.133 248.75C315.133 202.22 277.862 164.5 231.891 164.5Z" fill="#435A2C"/>
<path fill-rule="evenodd" clip-rule="evenodd" d="M218.106 164.5C215.701 164.5 213.323 164.611 210.971 164.812C214.063 165.076 217.102 165.514 220.088 166.111C264.251 167.178 299.762 203.746 299.762 248.75C299.762 293.754 264.251 330.322 220.088 331.389C217.102 331.986 214.063 332.424 210.971 332.688C213.323 332.889 215.701 333 218.106 333C264.077 333 301.348 295.28 301.348 248.75C301.348 202.22 264.077 164.5 218.106 164.5Z" fill="#435A2C"/>
</g>
<g style="mix-blend-mode:difference">
<path fill-rule="evenodd" clip-rule="evenodd" d="M204.319 164.5C201.914 164.5 199.536 164.611 197.184 164.812C200.275 165.076 203.314 165.514 206.301 166.111C250.464 167.178 285.975 203.746 285.975 248.75C285.975 293.754 250.464 330.322 206.301 331.389C203.314 331.986 200.275 332.424 197.184 332.688C199.536 332.889 201.914 333 204.319 333C250.289 333 287.561 295.28 287.561 248.75C287.561 202.22 250.289 164.5 204.319 164.5Z" fill="#435A2C"/>
<path fill-rule="evenodd" clip-rule="evenodd" d="M190.533 164.5C188.129 164.5 185.75 164.611 183.398 164.812C186.49 165.076 189.529 165.514 192.515 166.111C236.679 167.178 272.19 203.746 272.19 248.75C272.19 293.754 236.679 330.322 192.515 331.389C189.529 331.986 186.49 332.424 183.398 332.688C185.75 332.889 188.129 333 190.533 333C236.504 333 273.776 295.28 273.776 248.75C273.776 202.22 236.504 164.5 190.533 164.5Z" fill="#435A2C"/>
<path fill-rule="evenodd" clip-rule="evenodd" d="M175.336 164.5C172.891 164.5 170.472 164.611 168.08 164.812C171.224 165.076 174.315 165.514 177.352 166.111C222.263 167.178 258.377 203.746 258.377 248.75C258.377 293.754 222.263 330.322 177.352 331.389C174.315 331.986 171.224 332.424 168.08 332.688C170.472 332.889 172.891 333 175.336 333C222.086 333 259.989 295.28 259.989 248.75C259.989 202.22 222.086 164.5 175.336 164.5Z" fill="#435A2C"/>
<path fill-rule="evenodd" clip-rule="evenodd" d="M161.549 164.5C159.103 164.5 156.685 164.611 154.293 164.812C157.437 165.076 160.528 165.514 163.564 166.111C208.476 167.178 244.59 203.746 244.59 248.75C244.59 293.754 208.476 330.322 163.564 331.389C160.528 331.986 157.437 332.424 154.293 332.688C156.685 332.889 159.103 333 161.549 333C208.299 333 246.202 295.28 246.202 248.75C246.202 202.22 208.299 164.5 161.549 164.5Z" fill="#435A2C"/>
<path fill-rule="evenodd" clip-rule="evenodd" d="M151.995 164.5C149.671 164.5 147.374 164.611 145.102 164.812C148.089 165.076 151.025 165.514 153.91 166.111C196.576 167.178 230.883 203.746 230.883 248.75C230.883 293.754 196.576 330.322 153.91 331.389C151.025 331.986 148.089 332.424 145.102 332.688C147.374 332.889 149.671 333 151.995 333C196.407 333 232.415 295.28 232.415 248.75C232.415 202.22 196.407 164.5 151.995 164.5Z" fill="#435A2C"/>
<path fill-rule="evenodd" clip-rule="evenodd" d="M136.797 164.5C134.433 164.5 132.095 164.611 129.783 164.812C132.823 165.076 135.81 165.514 138.746 166.111C182.16 167.178 217.07 203.746 217.07 248.75C217.07 293.754 182.16 330.322 138.746 331.389C135.81 331.986 132.823 332.424 129.783 332.688C132.095 332.889 134.433 333 136.797 333C181.989 333 218.629 295.28 218.629 248.75C218.629 202.22 181.989 164.5 136.797 164.5Z" fill="#435A2C"/>
<path fill-rule="evenodd" clip-rule="evenodd" d="M120.19 164.5C117.744 164.5 115.325 164.611 112.934 164.812C116.078 165.076 119.168 165.514 122.205 166.111C167.117 167.178 203.23 203.746 203.23 248.75C203.23 293.754 167.117 330.322 122.205 331.389C119.168 331.986 116.078 332.424 112.934 332.688C115.325 332.889 117.744 333 120.19 333C166.94 333 204.843 295.28 204.843 248.75C204.843 202.22 166.94 164.5 120.19 164.5Z" fill="#435A2C"/>
<path fill-rule="evenodd" clip-rule="evenodd" d="M106.404 164.5C103.959 164.5 101.54 164.611 99.1484 164.812C102.293 165.076 105.383 165.514 108.42 166.111C153.332 167.178 189.445 203.746 189.445 248.75C189.445 293.754 153.332 330.322 108.42 331.389C105.383 331.986 102.293 332.424 99.1484 332.688C101.54 332.889 103.959 333 106.404 333C153.154 333 191.058 295.28 191.058 248.75C191.058 202.22 153.154 164.5 106.404 164.5Z" fill="#435A2C"/>
<path fill-rule="evenodd" clip-rule="evenodd" d="M94.0276 164.5C91.6229 164.5 89.2445 164.611 86.8926 164.812C89.9844 165.076 93.0234 165.514 96.0096 166.111C140.173 167.178 175.684 203.746 175.684 248.75C175.684 293.754 140.173 330.322 96.0096 331.389C93.0234 331.986 89.9844 332.424 86.8926 332.688C89.2445 332.889 91.6229 333 94.0276 333C139.998 333 177.27 295.28 177.27 248.75C177.27 202.22 139.998 164.5 94.0276 164.5Z" fill="#435A2C"/>
<path fill-rule="evenodd" clip-rule="evenodd" d="M80.2425 164.5C77.8377 164.5 75.4593 164.611 73.1074 164.812C76.1993 165.076 79.2383 165.514 82.2244 166.111C126.388 167.178 161.899 203.746 161.899 248.75C161.899 293.754 126.388 330.322 82.2244 331.389C79.2383 331.986 76.1993 332.424 73.1074 332.688C75.4593 332.889 77.8377 333 80.2425 333C126.213 333 163.485 295.28 163.485 248.75C163.485 202.22 126.213 164.5 80.2425 164.5Z" fill="#435A2C"/>
<path fill-rule="evenodd" clip-rule="evenodd" d="M65.045 164.5C62.5995 164.5 60.1808 164.611 57.7891 164.812C60.9333 165.076 64.0238 165.514 67.0606 166.111C111.972 167.178 148.086 203.746 148.086 248.75C148.086 293.754 111.972 330.322 67.0606 331.389C64.0238 331.986 60.9333 332.424 57.7891 332.688C60.1808 332.889 62.5995 333 65.045 333C111.795 333 149.698 295.28 149.698 248.75C149.698 202.22 111.795 164.5 65.045 164.5Z" fill="#435A2C"/>
<path fill-rule="evenodd" clip-rule="evenodd" d="M52.6692 164.5C50.2645 164.5 47.8861 164.611 45.5342 164.812C48.626 165.076 51.665 165.514 54.6512 166.111C98.8145 167.178 134.326 203.746 134.326 248.75C134.326 293.754 98.8145 330.322 54.6512 331.389C51.665 331.986 48.626 332.424 45.5342 332.688C47.8861 332.889 50.2645 333 52.6692 333C98.6401 333 135.911 295.28 135.911 248.75C135.911 202.22 98.6401 164.5 52.6692 164.5Z" fill="#435A2C"/>
<path fill-rule="evenodd" clip-rule="evenodd" d="M38.8831 164.5C36.4783 164.5 34.1 164.611 31.748 164.812C34.8399 165.076 37.8789 165.514 40.8651 166.111C85.0284 167.178 120.54 203.746 120.54 248.75C120.54 293.754 85.0284 330.322 40.8651 331.389C37.8789 331.986 34.8399 332.424 31.748 332.688C34.1 332.889 36.4783 333 38.8831 333C84.8539 333 122.125 295.28 122.125 248.75C122.125 202.22 84.8539 164.5 38.8831 164.5Z" fill="#435A2C"/>
<path fill-rule="evenodd" clip-rule="evenodd" d="M26.5073 164.5C24.1433 164.5 21.8052 164.611 19.4932 164.812C22.5326 165.076 25.5201 165.514 28.4556 166.111C71.8704 167.178 106.78 203.746 106.78 248.75C106.78 293.754 71.8704 330.322 28.4556 331.389C25.5201 331.986 22.5326 332.424 19.4932 332.688C21.8052 332.889 24.1433 333 26.5073 333C71.699 333 108.339 295.28 108.339 248.75C108.339 202.22 71.699 164.5 26.5073 164.5Z" fill="#435A2C"/>
<path fill-rule="evenodd" clip-rule="evenodd" d="M9.89954 164.5C7.454 164.5 5.03534 164.611 2.64355 164.812C5.78781 165.076 8.87832 165.514 11.9151 166.111C56.8269 167.178 92.9402 203.746 92.9402 248.75C92.9402 293.754 56.8269 330.322 11.9151 331.389C8.87832 331.986 5.78781 332.424 2.64355 332.688C5.03534 332.889 7.454 333 9.89954 333C56.6496 333 94.5526 295.28 94.5526 248.75C94.5526 202.22 56.6496 164.5 9.89954 164.5Z" fill="#435A2C"/>
<path fill-rule="evenodd" clip-rule="evenodd" d="M-1.06499 164.5C-3.429 164.5 -5.76704 164.611 -8.0791 164.812C-5.03965 165.076 -2.05216 165.514 0.883378 166.111C44.2981 167.178 79.2077 203.746 79.2077 248.75C79.2077 293.754 44.2981 330.322 0.883378 331.389C-2.05216 331.986 -5.03965 332.424 -8.0791 332.688C-5.76704 332.889 -3.429 333 -1.06499 333C44.1267 333 80.7663 295.28 80.7663 248.75C80.7663 202.22 44.1267 164.5 -1.06499 164.5Z" fill="#435A2C"/>
<path fill-rule="evenodd" clip-rule="evenodd" d="M-16.2624 164.5C-18.6672 164.5 -21.0455 164.611 -23.3975 164.812C-20.3056 165.076 -17.2666 165.514 -14.2805 166.111C29.8828 167.178 65.3942 203.746 65.3942 248.75C65.3942 293.754 29.8828 330.322 -14.2805 331.389C-17.2666 331.986 -20.3056 332.424 -23.3975 332.688C-21.0455 332.889 -18.6672 333 -16.2624 333C29.7084 333 66.9798 295.28 66.9798 248.75C66.9798 202.22 29.7084 164.5 -16.2624 164.5Z" fill="#435A2C"/>
<path fill-rule="evenodd" clip-rule="evenodd" d="M-28.6382 164.5C-31.0022 164.5 -33.3403 164.611 -35.6523 164.812C-32.6129 165.076 -29.6254 165.514 -26.6899 166.111C16.7249 167.178 51.6344 203.746 51.6344 248.75C51.6344 293.754 16.7249 330.322 -26.6899 331.389C-29.6254 331.986 -32.6129 332.424 -35.6523 332.688C-33.3403 332.889 -31.0022 333 -28.6382 333C16.5535 333 53.1931 295.28 53.1931 248.75C53.1931 202.22 16.5535 164.5 -28.6382 164.5Z" fill="#435A2C"/>
<path fill-rule="evenodd" clip-rule="evenodd" d="M-45.246 164.5C-47.6915 164.5 -50.1102 164.611 -52.502 164.812C-49.3577 165.076 -46.2672 165.514 -43.2304 166.111C1.68141 167.178 37.7947 203.746 37.7947 248.75C37.7947 293.754 1.68141 330.322 -43.2304 331.389C-46.2672 331.986 -49.3577 332.424 -52.502 332.688C-50.1102 332.889 -47.6915 333 -45.246 333C1.50404 333 39.4071 295.28 39.4071 248.75C39.4071 202.22 1.50404 164.5 -45.246 164.5Z" fill="#435A2C"/>
<path fill-rule="evenodd" clip-rule="evenodd" d="M-56.2105 164.5C-58.5745 164.5 -60.9125 164.611 -63.2246 164.812C-60.1852 165.076 -57.1977 165.514 -54.2621 166.111C-10.8474 167.178 24.0621 203.746 24.0621 248.75C24.0621 293.754 -10.8474 330.322 -54.2621 331.389C-57.1977 331.986 -60.1852 332.424 -63.2246 332.688C-60.9125 332.889 -58.5745 333 -56.2105 333C-11.0188 333 25.6208 295.28 25.6208 248.75C25.6208 202.22 -11.0188 164.5 -56.2105 164.5Z" fill="#435A2C"/>
<path fill-rule="evenodd" clip-rule="evenodd" d="M-71.4079 164.5C-73.8127 164.5 -76.191 164.611 -78.543 164.812C-75.4511 165.076 -72.4121 165.514 -69.426 166.111C-25.2627 167.178 10.2487 203.746 10.2487 248.75C10.2487 293.754 -25.2627 330.322 -69.426 331.389C-72.4121 331.986 -75.4511 332.424 -78.543 332.688C-76.191 332.889 -73.8127 333 -71.4079 333C-25.4371 333 11.8343 295.28 11.8343 248.75C11.8343 202.22 -25.4371 164.5 -71.4079 164.5Z" fill="#435A2C"/>
</g>
<g style="mix-blend-mode:difference">
<path fill-rule="evenodd" clip-rule="evenodd" d="M372.819 501.5C370.414 501.5 368.036 501.611 365.684 501.812C368.775 502.076 371.814 502.514 374.801 503.111C418.964 504.178 454.475 540.746 454.475 585.75C454.475 630.754 418.964 667.322 374.801 668.389C371.814 668.986 368.775 669.424 365.684 669.688C368.036 669.889 370.414 670 372.819 670C418.789 670 456.061 632.28 456.061 585.75C456.061 539.22 418.789 501.5 372.819 501.5Z" fill="#435A2C"/>
<path fill-rule="evenodd" clip-rule="evenodd" d="M357.621 501.5C355.176 501.5 352.757 501.611 350.365 501.812C353.509 502.076 356.6 502.514 359.637 503.111C404.549 504.178 440.662 540.746 440.662 585.75C440.662 630.754 404.549 667.322 359.637 668.389C356.6 668.986 353.509 669.424 350.365 669.688C352.757 669.889 355.176 670 357.621 670C404.371 670 442.274 632.28 442.274 585.75C442.274 539.22 404.371 501.5 357.621 501.5Z" fill="#435A2C"/>
<path fill-rule="evenodd" clip-rule="evenodd" d="M345.246 501.5C342.842 501.5 340.463 501.611 338.111 501.812C341.203 502.076 344.242 502.514 347.228 503.111C391.392 504.178 426.903 540.746 426.903 585.75C426.903 630.754 391.392 667.322 347.228 668.389C344.242 668.986 341.203 669.424 338.111 669.688C340.463 669.889 342.842 670 345.246 670C391.217 670 428.489 632.28 428.489 585.75C428.489 539.22 391.217 501.5 345.246 501.5Z" fill="#435A2C"/>
<path fill-rule="evenodd" clip-rule="evenodd" d="M331.459 501.5C329.054 501.5 326.676 501.611 324.324 501.812C327.416 502.076 330.455 502.514 333.441 503.111C377.605 504.178 413.116 540.746 413.116 585.75C413.116 630.754 377.605 667.322 333.441 668.389C330.455 668.986 327.416 669.424 324.324 669.688C326.676 669.889 329.054 670 331.459 670C377.43 670 414.701 632.28 414.701 585.75C414.701 539.22 377.43 501.5 331.459 501.5Z" fill="#435A2C"/>
<path fill-rule="evenodd" clip-rule="evenodd" d="M316.262 501.5C313.816 501.5 311.398 501.611 309.006 501.812C312.15 502.076 315.241 502.514 318.277 503.111C363.189 504.178 399.303 540.746 399.303 585.75C399.303 630.754 363.189 667.322 318.277 668.389C315.241 668.986 312.15 669.424 309.006 669.688C311.398 669.889 313.816 670 316.262 670C363.012 670 400.915 632.28 400.915 585.75C400.915 539.22 363.012 501.5 316.262 501.5Z" fill="#435A2C"/>
<path fill-rule="evenodd" clip-rule="evenodd" d="M300.945 501.5C298.5 501.5 296.081 501.611 293.689 501.812C296.834 502.076 299.924 502.514 302.961 503.111C347.873 504.178 383.986 540.746 383.986 585.75C383.986 630.754 347.873 667.322 302.961 668.389C299.924 668.986 296.834 669.424 293.689 669.688C296.081 669.889 298.5 670 300.945 670C347.695 670 385.599 632.28 385.599 585.75C385.599 539.22 347.695 501.5 300.945 501.5Z" fill="#435A2C"/>
<path fill-rule="evenodd" clip-rule="evenodd" d="M288.448 501.5C286.084 501.5 283.746 501.611 281.434 501.812C284.473 502.076 287.461 502.514 290.396 503.111C333.811 504.178 368.72 540.746 368.72 585.75C368.72 630.754 333.811 667.322 290.396 668.389C287.461 668.986 284.473 669.424 281.434 669.688C283.746 669.889 286.084 670 288.448 670C333.639 670 370.279 632.28 370.279 585.75C370.279 539.22 333.639 501.5 288.448 501.5Z" fill="#435A2C"/>
<path fill-rule="evenodd" clip-rule="evenodd" d="M276.073 501.5C273.75 501.5 271.452 501.611 269.18 501.812C272.167 502.076 275.103 502.514 277.988 503.111C320.654 504.178 354.962 540.746 354.962 585.75C354.962 630.754 320.654 667.322 277.988 668.389C275.103 668.986 272.167 669.424 269.18 669.688C271.452 669.889 273.75 670 276.073 670C320.485 670 356.493 632.28 356.493 585.75C356.493 539.22 320.485 501.5 276.073 501.5Z" fill="#435A2C"/>
<path fill-rule="evenodd" clip-rule="evenodd" d="M258.053 501.5C255.607 501.5 253.189 501.611 250.797 501.812C253.941 502.076 257.032 502.514 260.068 503.111C304.98 504.178 341.094 540.746 341.094 585.75C341.094 630.754 304.98 667.322 260.068 668.389C257.032 668.986 253.941 669.424 250.797 669.688C253.189 669.889 255.607 670 258.053 670C304.803 670 342.706 632.28 342.706 585.75C342.706 539.22 304.803 501.5 258.053 501.5Z" fill="#435A2C"/>
<path fill-rule="evenodd" clip-rule="evenodd" d="M244.268 501.5C241.822 501.5 239.404 501.611 237.012 501.812C240.156 502.076 243.246 502.514 246.283 503.111C291.195 504.178 327.308 540.746 327.308 585.75C327.308 630.754 291.195 667.322 246.283 668.389C243.246 668.986 240.156 669.424 237.012 669.688C239.404 669.889 241.822 670 244.268 670C291.018 670 328.921 632.28 328.921 585.75C328.921 539.22 291.018 501.5 244.268 501.5Z" fill="#435A2C"/>
<path fill-rule="evenodd" clip-rule="evenodd" d="M231.891 501.5C229.486 501.5 227.108 501.611 224.756 501.812C227.848 502.076 230.887 502.514 233.873 503.111C278.036 504.178 313.548 540.746 313.548 585.75C313.548 630.754 278.036 667.322 233.873 668.389C230.887 668.986 227.848 669.424 224.756 669.688C227.108 669.889 229.486 670 231.891 670C277.862 670 315.133 632.28 315.133 585.75C315.133 539.22 277.862 501.5 231.891 501.5Z" fill="#435A2C"/>
<path fill-rule="evenodd" clip-rule="evenodd" d="M218.106 501.5C215.701 501.5 213.323 501.611 210.971 501.812C214.063 502.076 217.102 502.514 220.088 503.111C264.251 504.178 299.762 540.746 299.762 585.75C299.762 630.754 264.251 667.322 220.088 668.389C217.102 668.986 214.063 669.424 210.971 669.688C213.323 669.889 215.701 670 218.106 670C264.077 670 301.348 632.28 301.348 585.75C301.348 539.22 264.077 501.5 218.106 501.5Z" fill="#435A2C"/>
</g>
<g style="mix-blend-mode:difference">
<path fill-rule="evenodd" clip-rule="evenodd" d="M204.319 501.5C201.914 501.5 199.536 501.611 197.184 501.812C200.275 502.076 203.314 502.514 206.301 503.111C250.464 504.178 285.975 540.746 285.975 585.75C285.975 630.754 250.464 667.322 206.301 668.389C203.314 668.986 200.275 669.424 197.184 669.688C199.536 669.889 201.914 670 204.319 670C250.289 670 287.561 632.28 287.561 585.75C287.561 539.22 250.289 501.5 204.319 501.5Z" fill="#435A2C"/>
<path fill-rule="evenodd" clip-rule="evenodd" d="M190.533 501.5C188.129 501.5 185.75 501.611 183.398 501.812C186.49 502.076 189.529 502.514 192.515 503.111C236.679 504.178 272.19 540.746 272.19 585.75C272.19 630.754 236.679 667.322 192.515 668.389C189.529 668.986 186.49 669.424 183.398 669.688C185.75 669.889 188.129 670 190.533 670C236.504 670 273.776 632.28 273.776 585.75C273.776 539.22 236.504 501.5 190.533 501.5Z" fill="#435A2C"/>
<path fill-rule="evenodd" clip-rule="evenodd" d="M175.336 501.5C172.891 501.5 170.472 501.611 168.08 501.812C171.224 502.076 174.315 502.514 177.352 503.111C222.263 504.178 258.377 540.746 258.377 585.75C258.377 630.754 222.263 667.322 177.352 668.389C174.315 668.986 171.224 669.424 168.08 669.688C170.472 669.889 172.891 670 175.336 670C222.086 670 259.989 632.28 259.989 585.75C259.989 539.22 222.086 501.5 175.336 501.5Z" fill="#435A2C"/>
<path fill-rule="evenodd" clip-rule="evenodd" d="M161.549 501.5C159.103 501.5 156.685 501.611 154.293 501.812C157.437 502.076 160.528 502.514 163.564 503.111C208.476 504.178 244.59 540.746 244.59 585.75C244.59 630.754 208.476 667.322 163.564 668.389C160.528 668.986 157.437 669.424 154.293 669.688C156.685 669.889 159.103 670 161.549 670C208.299 670 246.202 632.28 246.202 585.75C246.202 539.22 208.299 501.5 161.549 501.5Z" fill="#435A2C"/>
<path fill-rule="evenodd" clip-rule="evenodd" d="M151.995 501.5C149.671 501.5 147.374 501.611 145.102 501.812C148.089 502.076 151.025 502.514 153.91 503.111C196.576 504.178 230.883 540.746 230.883 585.75C230.883 630.754 196.576 667.322 153.91 668.389C151.025 668.986 148.089 669.424 145.102 669.688C147.374 669.889 149.671 670 151.995 670C196.407 670 232.415 632.28 232.415 585.75C232.415 539.22 196.407 501.5 151.995 501.5Z" fill="#435A2C"/>
<path fill-rule="evenodd" clip-rule="evenodd" d="M136.797 501.5C134.433 501.5 132.095 501.611 129.783 501.812C132.823 502.076 135.81 502.514 138.746 503.111C182.16 504.178 217.07 540.746 217.07 585.75C217.07 630.754 182.16 667.322 138.746 668.389C135.81 668.986 132.823 669.424 129.783 669.688C132.095 669.889 134.433 670 136.797 670C181.989 670 218.629 632.28 218.629 585.75C218.629 539.22 181.989 501.5 136.797 501.5Z" fill="#435A2C"/>
<path fill-rule="evenodd" clip-rule="evenodd" d="M120.19 501.5C117.744 501.5 115.325 501.611 112.934 501.812C116.078 502.076 119.168 502.514 122.205 503.111C167.117 504.178 203.23 540.746 203.23 585.75C203.23 630.754 167.117 667.322 122.205 668.389C119.168 668.986 116.078 669.424 112.934 669.688C115.325 669.889 117.744 670 120.19 670C166.94 670 204.843 632.28 204.843 585.75C204.843 539.22 166.94 501.5 120.19 501.5Z" fill="#435A2C"/>
<path fill-rule="evenodd" clip-rule="evenodd" d="M106.404 501.5C103.959 501.5 101.54 501.611 99.1484 501.812C102.293 502.076 105.383 502.514 108.42 503.111C153.332 504.178 189.445 540.746 189.445 585.75C189.445 630.754 153.332 667.322 108.42 668.389C105.383 668.986 102.293 669.424 99.1484 669.688C101.54 669.889 103.959 670 106.404 670C153.154 670 191.058 632.28 191.058 585.75C191.058 539.22 153.154 501.5 106.404 501.5Z" fill="#435A2C"/>
<path fill-rule="evenodd" clip-rule="evenodd" d="M94.0276 501.5C91.6229 501.5 89.2445 501.611 86.8926 501.812C89.9844 502.076 93.0234 502.514 96.0096 503.111C140.173 504.178 175.684 540.746 175.684 585.75C175.684 630.754 140.173 667.322 96.0096 668.389C93.0234 668.986 89.9844 669.424 86.8926 669.688C89.2445 669.889 91.6229 670 94.0276 670C139.998 670 177.27 632.28 177.27 585.75C177.27 539.22 139.998 501.5 94.0276 501.5Z" fill="#435A2C"/>
<path fill-rule="evenodd" clip-rule="evenodd" d="M80.2425 501.5C77.8377 501.5 75.4593 501.611 73.1074 501.812C76.1993 502.076 79.2383 502.514 82.2244 503.111C126.388 504.178 161.899 540.746 161.899 585.75C161.899 630.754 126.388 667.322 82.2244 668.389C79.2383 668.986 76.1993 669.424 73.1074 669.688C75.4593 669.889 77.8377 670 80.2425 670C126.213 670 163.485 632.28 163.485 585.75C163.485 539.22 126.213 501.5 80.2425 501.5Z" fill="#435A2C"/>
<path fill-rule="evenodd" clip-rule="evenodd" d="M65.045 501.5C62.5995 501.5 60.1808 501.611 57.7891 501.812C60.9333 502.076 64.0238 502.514 67.0606 503.111C111.972 504.178 148.086 540.746 148.086 585.75C148.086 630.754 111.972 667.322 67.0606 668.389C64.0238 668.986 60.9333 669.424 57.7891 669.688C60.1808 669.889 62.5995 670 65.045 670C111.795 670 149.698 632.28 149.698 585.75C149.698 539.22 111.795 501.5 65.045 501.5Z" fill="#435A2C"/>
<path fill-rule="evenodd" clip-rule="evenodd" d="M52.6692 501.5C50.2645 501.5 47.8861 501.611 45.5342 501.812C48.626 502.076 51.665 502.514 54.6512 503.111C98.8145 504.178 134.326 540.746 134.326 585.75C134.326 630.754 98.8145 667.322 54.6512 668.389C51.665 668.986 48.626 669.424 45.5342 669.688C47.8861 669.889 50.2645 670 52.6692 670C98.6401 670 135.911 632.28 135.911 585.75C135.911 539.22 98.6401 501.5 52.6692 501.5Z" fill="#435A2C"/>
<path fill-rule="evenodd" clip-rule="evenodd" d="M38.8831 501.5C36.4783 501.5 34.1 501.611 31.748 501.812C34.8399 502.076 37.8789 502.514 40.8651 503.111C85.0284 504.178 120.54 540.746 120.54 585.75C120.54 630.754 85.0284 667.322 40.8651 668.389C37.8789 668.986 34.8399 669.424 31.748 669.688C34.1 669.889 36.4783 670 38.8831 670C84.8539 670 122.125 632.28 122.125 585.75C122.125 539.22 84.8539 501.5 38.8831 501.5Z" fill="#435A2C"/>
<path fill-rule="evenodd" clip-rule="evenodd" d="M26.5073 501.5C24.1433 501.5 21.8052 501.611 19.4932 501.812C22.5326 502.076 25.5201 502.514 28.4556 503.111C71.8704 504.178 106.78 540.746 106.78 585.75C106.78 630.754 71.8704 667.322 28.4556 668.389C25.5201 668.986 22.5326 669.424 19.4932 669.688C21.8052 669.889 24.1433 670 26.5073 670C71.699 670 108.339 632.28 108.339 585.75C108.339 539.22 71.699 501.5 26.5073 501.5Z" fill="#435A2C"/>
<path fill-rule="evenodd" clip-rule="evenodd" d="M9.89954 501.5C7.454 501.5 5.03534 501.611 2.64355 501.812C5.78781 502.076 8.87832 502.514 11.9151 503.111C56.8269 504.178 92.9402 540.746 92.9402 585.75C92.9402 630.754 56.8269 667.322 11.9151 668.389C8.87832 668.986 5.78781 669.424 2.64355 669.688C5.03534 669.889 7.454 670 9.89954 670C56.6496 670 94.5526 632.28 94.5526 585.75C94.5526 539.22 56.6496 501.5 9.89954 501.5Z" fill="#435A2C"/>
<path fill-rule="evenodd" clip-rule="evenodd" d="M-1.06499 501.5C-3.429 501.5 -5.76704 501.611 -8.0791 501.812C-5.03965 502.076 -2.05216 502.514 0.883378 503.111C44.2981 504.178 79.2077 540.746 79.2077 585.75C79.2077 630.754 44.2981 667.322 0.883378 668.389C-2.05216 668.986 -5.03965 669.424 -8.0791 669.688C-5.76704 669.889 -3.429 670 -1.06499 670C44.1267 670 80.7663 632.28 80.7663 585.75C80.7663 539.22 44.1267 501.5 -1.06499 501.5Z" fill="#435A2C"/>
<path fill-rule="evenodd" clip-rule="evenodd" d="M-16.2624 501.5C-18.6672 501.5 -21.0455 501.611 -23.3975 501.812C-20.3056 502.076 -17.2666 502.514 -14.2805 503.111C29.8828 504.178 65.3942 540.746 65.3942 585.75C65.3942 630.754 29.8828 667.322 -14.2805 668.389C-17.2666 668.986 -20.3056 669.424 -23.3975 669.688C-21.0455 669.889 -18.6672 670 -16.2624 670C29.7084 670 66.9798 632.28 66.9798 585.75C66.9798 539.22 29.7084 501.5 -16.2624 501.5Z" fill="#435A2C"/>
<path fill-rule="evenodd" clip-rule="evenodd" d="M-28.6382 501.5C-31.0022 501.5 -33.3403 501.611 -35.6523 501.812C-32.6129 502.076 -29.6254 502.514 -26.6899 503.111C16.7249 504.178 51.6344 540.746 51.6344 585.75C51.6344 630.754 16.7249 667.322 -26.6899 668.389C-29.6254 668.986 -32.6129 669.424 -35.6523 669.688C-33.3403 669.889 -31.0022 670 -28.6382 670C16.5535 670 53.1931 632.28 53.1931 585.75C53.1931 539.22 16.5535 501.5 -28.6382 501.5Z" fill="#435A2C"/>
<path fill-rule="evenodd" clip-rule="evenodd" d="M-45.246 501.5C-47.6915 501.5 -50.1102 501.611 -52.502 501.812C-49.3577 502.076 -46.2672 502.514 -43.2304 503.111C1.68141 504.178 37.7947 540.746 37.7947 585.75C37.7947 630.754 1.68141 667.322 -43.2304 668.389C-46.2672 668.986 -49.3577 669.424 -52.502 669.688C-50.1102 669.889 -47.6915 670 -45.246 670C1.50404 670 39.4071 632.28 39.4071 585.75C39.4071 539.22 1.50404 501.5 -45.246 501.5Z" fill="#435A2C"/>
<path fill-rule="evenodd" clip-rule="evenodd" d="M-56.2105 501.5C-58.5745 501.5 -60.9125 501.611 -63.2246 501.812C-60.1852 502.076 -57.1977 502.514 -54.2621 503.111C-10.8474 504.178 24.0621 540.746 24.0621 585.75C24.0621 630.754 -10.8474 667.322 -54.2621 668.389C-57.1977 668.986 -60.1852 669.424 -63.2246 669.688C-60.9125 669.889 -58.5745 670 -56.2105 670C-11.0188 670 25.6208 632.28 25.6208 585.75C25.6208 539.22 -11.0188 501.5 -56.2105 501.5Z" fill="#435A2C"/>
<path fill-rule="evenodd" clip-rule="evenodd" d="M-71.4079 501.5C-73.8127 501.5 -76.191 501.611 -78.543 501.812C-75.4511 502.076 -72.4121 502.514 -69.426 503.111C-25.2627 504.178 10.2487 540.746 10.2487 585.75C10.2487 630.754 -25.2627 667.322 -69.426 668.389C-72.4121 668.986 -75.4511 669.424 -78.543 669.688C-76.191 669.889 -73.8127 670 -71.4079 670C-25.4371 670 11.8343 632.28 11.8343 585.75C11.8343 539.22 -25.4371 501.5 -71.4079 501.5Z" fill="#435A2C"/>
</g>
</g>
</svg>
